<?xml version="1.0" encoding="UTF-8" standalone="no"?>
<!-- Generator: Adobe Illustrator 17.1.0, SVG Export Plug-In . SVG Version: 6.00 Build 0)  -->

<svg
   xmlns:dc="http://purl.org/dc/elements/1.1/"
   xmlns:cc="http://creativecommons.org/ns#"
   xmlns:rdf="http://www.w3.org/1999/02/22-rdf-syntax-ns#"
   xmlns:svg="http://www.w3.org/2000/svg"
   xmlns="http://www.w3.org/2000/svg"
   xmlns:sodipodi="http://sodipodi.sourceforge.net/DTD/sodipodi-0.dtd"
   xmlns:inkscape="http://www.inkscape.org/namespaces/inkscape"
   version="1.1"
   id="Capa_1"
   x="0px"
   y="0px"
   viewBox="0 0 94.873645 129.8805"
   xml:space="preserve"
   width="187"
   height="256"
   sodipodi:docname="ic_car.svg"
   inkscape:version="0.92.2 5c3e80d, 2017-08-06"><metadata
     id="metadata43"><rdf:RDF><cc:Work
         rdf:about=""><dc:title></dc:title></cc:Work></rdf:RDF></metadata><defs
     id="defs41" /><sodipodi:namedview
     pagecolor="#ffffff"
     bordercolor="#666666"
     borderopacity="1"
     objecttolerance="10"
     gridtolerance="10"
     guidetolerance="10"
     inkscape:pageopacity="0"
     inkscape:pageshadow="2"
     inkscape:window-width="1282"
     inkscape:window-height="700"
     id="namedview39"
     showgrid="false"
     inkscape:zoom="0.4609375"
     inkscape:cx="856.94915"
     inkscape:cy="361.75186"
     inkscape:window-x="0"
     inkscape:window-y="0"
     inkscape:window-maximized="0"
     inkscape:current-layer="Capa_1" /><path
     style="fill:#d80027;stroke-width:0.5"
     d="M 47.435833,-1.1271725e-6 C 21.277333,-1.1271725e-6 -0.00346829,21.281288 -0.00346829,47.440788 c 0,15.8025 14.53532829,40.74309 20.78432729,50.73259 5.141,8.218002 10.66044,16.031172 15.539939,22.000172 7.9355,9.707 10.16353,9.70695 11.11553,9.70695 0.9135,0 3.052947,7e-5 10.960946,-9.70992 4.892,-6.007 10.415325,-13.81873 15.55282,-21.994232 6.292,-10.0135 20.92702,-35.00306 20.92702,-50.73556 0,-26.1595 -21.28178,-47.4407891271725 -47.441281,-47.4407891271725 z M 47.436333,10.700338 c 20.694501,0 37.531196,16.83669 37.531196,37.53119 0,20.69451 -16.836695,37.5312 -37.531196,37.5312 -20.694501,0 -37.5307,-16.83669 -37.5307,-37.5312 0,-20.6945 16.836199,-37.53119 37.5307,-37.53119 z m -14.663975,12.53104 c -2.3345,0 -4.954913,1.75707 -5.841413,3.91657 l -3.124834,7.61266 -2.975702,-0.81948 c -0.265998,-0.073 -0.532725,-0.11098 -0.792727,-0.11098 -1.4245,0 -2.457951,1.08777 -2.457951,2.58677 v 1.77769 c 0,1.7495 1.423889,3.17339 3.173389,3.17339 h 0.340873 l -0.50487,1.22972 c -0.823498,2.007 -1.49429,5.40353 -1.49429,7.57253 v 15.14358 c 0,1.74949 1.424383,3.17388 3.173884,3.17388 h 4.145468 c 1.749501,0 3.173389,-1.42439 3.173389,-3.17388 v -3.78131 h 35.65788 v 3.78131 c 0,1.74949 1.42389,3.17388 3.17339,3.17388 h 4.14448 c 1.7495,0 3.173385,-1.42439 3.173385,-3.17388 v -15.14358 c 0,-2.169 -0.67079,-5.56553 -1.49429,-7.57253 l -0.50487,-1.22972 h 0.383485 c 1.749495,0 3.173385,-1.42389 3.173385,-3.17339 v -1.77769 c -0.001,-1.499 -1.03444,-2.58677 -2.45894,-2.58677 -0.26,0 -0.52673,0.0375 -0.79273,0.11098 l -3.01385,0.82939 -3.1283,-7.62208 c -0.88651,-2.15949 -3.50692,-3.91706 -5.841425,-3.91706 z m 1.54582,2.53326 h 26.195686 c 1.396,0 2.972365,1.05696 3.502865,2.34846 l 4.733575,11.53072 c 0.5305,1.292 -0.178555,2.34845 -1.574555,2.34845 H 27.656781 c -1.395999,0 -2.105051,-1.05645 -1.575049,-2.34845 l 4.733573,-11.53072 c 0.530001,-1.292 2.106363,-2.34846 3.502868,-2.34846 z m -7.930743,22.87812 h 8.992008 c 0.698005,0 1.269855,0.57185 1.269855,1.26985 v 4.31541 c 0,0.698 -0.57185,1.26936 -1.269855,1.26936 h -8.992008 c -0.698498,0 -1.269353,-0.57136 -1.269353,-1.26936 v -4.31541 c 0,-0.698 0.571355,-1.26985 1.269353,-1.26985 z m 32.979949,0 h 8.99102 c 0.698,0 1.26985,0.57185 1.26985,1.26985 v 4.31541 c 0,0.698 -0.57185,1.26936 -1.26985,1.26936 h -8.99102 c -0.698,0 -1.269355,-0.57136 -1.269355,-1.26936 v -4.31541 c 0,-0.698 0.571355,-1.26985 1.269355,-1.26985 z"
     id="path2"
     inkscape:connector-curvature="0" /></svg>